<svg xmlns="http://www.w3.org/2000/svg" width="13.948" height="9.137"><path data-name="Trazado 849" d="M13.948 7.946a3.558 3.558 0 0 1-.275.611 1.359 1.359 0 0 1-1.2.579H1.482A1.421 1.421 0 0 1 .275 8.57a1.379 1.379 0 0 1-.278-.863V1.469a1.4 1.4 0 0 1 1.475-1.47h10.991a1.372 1.372 0 0 1 1.21.58 3.556 3.556 0 0 1 .275.611ZM1.784.931c.05.053.08.087.112.119l4.857 4.862c.177.176.257.177.432 0l4.871-4.871c.03-.03.058-.063.1-.112Zm10.094 7.274L9.022 5.349a.58.58 0 0 1-.072.106q-.566.57-1.135 1.136a1.115 1.115 0 0 1-1.414.211 1.509 1.509 0 0 1-.294-.239c-.406-.4-.807-.808-1.181-1.183L2.101 8.205Zm-7.7-3.516L.924 1.435v6.283a1.3 1.3 0 0 0 .029.2L4.18 4.69m5.584-.009 3.223 3.218c.042-.1.069-6.233.023-6.465L9.766 4.678" fill="#fefefe"/></svg>