<svg xmlns="http://www.w3.org/2000/svg" width="13.948" height="14"><path data-name="Trazado 850" d="M2.981 0a2.072 2.072 0 0 1 1.074.682c.54.555 1.1 1.092 1.627 1.659a1.276 1.276 0 0 1 0 1.794c-.338.375-.7.725-1.065 1.079a.159.159 0 0 0-.043.219 8.074 8.074 0 0 0 1.445 1.995 9.969 9.969 0 0 0 1.925 1.629c.2.125.405.226.606.343a.113.113 0 0 0 .163-.027c.3-.309.6-.623.92-.916a2.177 2.177 0 0 1 .574-.407 1.25 1.25 0 0 1 1.456.3c.6.583 1.185 1.186 1.783 1.774a1.382 1.382 0 0 1 .1 2.034c-.424.457-.856.91-1.318 1.328a2.238 2.238 0 0 1-1.761.506 7.81 7.81 0 0 1-2.861-.894 14.272 14.272 0 0 1-3.635-2.567A14.15 14.15 0 0 1 .32 5.013 5.3 5.3 0 0 1 0 3.161a2.267 2.267 0 0 1 .654-1.6L1.746.466A1.726 1.726 0 0 1 2.625 0Zm7.725 13.295a1.506 1.506 0 0 0 1.131-.4q.614-.593 1.192-1.223a.639.639 0 0 0-.014-.959c-.613-.63-1.237-1.25-1.865-1.866a.606.606 0 0 0-.833-.043 1.722 1.722 0 0 0-.194.172c-.339.337-.676.677-1.016 1.014a.582.582 0 0 1-.746.122c-.2-.1-.4-.2-.588-.318a10.5 10.5 0 0 1-2.3-1.9 8.46 8.46 0 0 1-1.587-2.261.628.628 0 0 1 .163-.855c.335-.322.669-.646.994-.978a.679.679 0 0 0 .006-1.1l-.019-.02C4.469 2.119 3.911 1.557 3.347 1a1.133 1.133 0 0 0-.306-.225.667.667 0 0 0-.791.2c-.359.349-.72.7-1.06 1.066a1.925 1.925 0 0 0-.361.555 2.358 2.358 0 0 0-.045 1.4 8.506 8.506 0 0 0 .969 2.512 14.362 14.362 0 0 0 6.794 6.252 5.825 5.825 0 0 0 2.158.541" fill="#fefefe"/></svg>