<svg width="26" height="21" viewBox="0 0 26 21" fill="none" xmlns="http://www.w3.org/2000/svg">
<path d="M25.9914 2.93742C25.0486 3.34466 24.0439 3.61459 22.9964 3.74565C24.074 3.11217 24.8964 2.11671 25.2831 0.916844C24.2784 1.50663 23.1692 1.92323 21.987 2.15571C21.033 1.15557 19.6734 0.536133 18.1901 0.536133C15.3124 0.536133 12.9956 2.836 12.9956 5.65545C12.9956 6.06112 13.0304 6.4512 13.116 6.82255C8.7946 6.61503 4.97079 4.57573 2.40204 1.46919C1.95358 2.23529 1.69052 3.11217 1.69052 4.05615C1.69052 5.82864 2.61756 7.39985 3.99939 8.3095C3.16427 8.2939 2.34499 8.05517 1.65091 7.67914C1.65091 7.69475 1.65091 7.71503 1.65091 7.73532C1.65091 10.2224 3.45268 12.2882 5.81542 12.7641C5.39232 12.878 4.93118 12.9326 4.45261 12.9326C4.11982 12.9326 3.78387 12.9139 3.46853 12.8453C4.14201 14.8721 6.05312 16.3622 8.32554 16.4105C6.55705 17.7727 4.31157 18.5934 1.88069 18.5934C1.45441 18.5934 1.04556 18.5747 0.636719 18.5232C2.93925 19.9852 5.66805 20.8199 8.61078 20.8199C18.1759 20.8199 23.4053 13.0185 23.4053 6.25616C23.4053 6.02992 23.3973 5.81148 23.3863 5.5946C24.4179 4.87374 25.2847 3.97345 25.9914 2.93742Z" fill="#007CB1"/>
</svg>
